<?xml version="1.0" encoding="UTF-8" standalone="no"?>
<svg
   id="_0388_the_great_pyramid"
   viewBox="0 0 1920 1080"
   data-imageid="the-great-pyramid-40"
   imageName="The Great Pyramid"
   class="illustrations_image"
   version="1.1"
   sodipodi:docname="error_bg_dark.svg"
   inkscape:version="1.2.2 (732a01da63, 2022-12-09)"
   width="1920"
   height="1080"
   xmlns:inkscape="http://www.inkscape.org/namespaces/inkscape"
   xmlns:sodipodi="http://sodipodi.sourceforge.net/DTD/sodipodi-0.dtd"
   xmlns:xlink="http://www.w3.org/1999/xlink"
   xmlns="http://www.w3.org/2000/svg"
   xmlns:svg="http://www.w3.org/2000/svg">
  <sodipodi:namedview
     id="namedview126"
     pagecolor="#505050"
     bordercolor="#eeeeee"
     borderopacity="1"
     inkscape:showpageshadow="0"
     inkscape:pageopacity="0"
     inkscape:pagecheckerboard="0"
     inkscape:deskcolor="#505050"
     showgrid="false"
     inkscape:zoom="0.201"
     inkscape:cx="957.71146"
     inkscape:cy="-136.81592"
     inkscape:window-width="1920"
     inkscape:window-height="991"
     inkscape:window-x="-9"
     inkscape:window-y="-9"
     inkscape:window-maximized="1"
     inkscape:current-layer="_0388_the_great_pyramid" />
  <defs
     id="defs44">
    <style
       id="style2">.cls-1_the-great-pyramid-40{fill:none;}.cls-1_the-great-pyramid-40,.cls-2_the-great-pyramid-40,.cls-3_the-great-pyramid-40,.cls-4_the-great-pyramid-40,.cls-5_the-great-pyramid-40,.cls-6_the-great-pyramid-40,.cls-7_the-great-pyramid-40,.cls-8_the-great-pyramid-40,.cls-9_the-great-pyramid-40,.cls-10_the-great-pyramid-40,.cls-11_the-great-pyramid-40,.cls-12_the-great-pyramid-40,.cls-13_the-great-pyramid-40,.cls-14_the-great-pyramid-40,.cls-15_the-great-pyramid-40,.cls-16_the-great-pyramid-40,.cls-17_the-great-pyramid-40,.cls-18_the-great-pyramid-40,.cls-19_the-great-pyramid-40,.cls-20_the-great-pyramid-40,.cls-21_the-great-pyramid-40,.cls-22_the-great-pyramid-40,.cls-23_the-great-pyramid-40,.cls-24_the-great-pyramid-40,.cls-25_the-great-pyramid-40{stroke-width:0px;}.cls-2_the-great-pyramid-40{fill:url(#linear-gradient);}.cls-3_the-great-pyramid-40{fill:url(#linear-gradient-11-the-great-pyramid-40);}.cls-4_the-great-pyramid-40{fill:url(#linear-gradient-12-the-great-pyramid-40);}.cls-5_the-great-pyramid-40{fill:url(#linear-gradient-13-the-great-pyramid-40);}.cls-6_the-great-pyramid-40{fill:url(#linear-gradient-16-the-great-pyramid-40);}.cls-7_the-great-pyramid-40{fill:url(#linear-gradient-19-the-great-pyramid-40);}.cls-8_the-great-pyramid-40{fill:url(#linear-gradient-15-the-great-pyramid-40);}.cls-9_the-great-pyramid-40{fill:url(#linear-gradient-21-the-great-pyramid-40);}.cls-10_the-great-pyramid-40{fill:url(#linear-gradient-18-the-great-pyramid-40);}.cls-11_the-great-pyramid-40{fill:url(#linear-gradient-14-the-great-pyramid-40);}.cls-12_the-great-pyramid-40{fill:url(#linear-gradient-22-the-great-pyramid-40);}.cls-13_the-great-pyramid-40{fill:url(#linear-gradient-20-the-great-pyramid-40);}.cls-14_the-great-pyramid-40{fill:url(#linear-gradient-17-the-great-pyramid-40);}.cls-14_the-great-pyramid-40,.cls-15_the-great-pyramid-40{opacity:.69;}.cls-14_the-great-pyramid-40,.cls-15_the-great-pyramid-40,.cls-16_the-great-pyramid-40{isolation:isolate;}.cls-15_the-great-pyramid-40{fill:url(#linear-gradient-10-the-great-pyramid-40);}.cls-16_the-great-pyramid-40{opacity:.42;}.cls-16_the-great-pyramid-40,.cls-25_the-great-pyramid-40{fill:#68e1fd;}.cls-17_the-great-pyramid-40{fill:url(#linear-gradient-4-the-great-pyramid-40);}.cls-18_the-great-pyramid-40{fill:url(#linear-gradient-2-the-great-pyramid-40);}.cls-19_the-great-pyramid-40{fill:url(#linear-gradient-3-the-great-pyramid-40);}.cls-20_the-great-pyramid-40{fill:url(#linear-gradient-8-the-great-pyramid-40);}.cls-21_the-great-pyramid-40{fill:url(#linear-gradient-9-the-great-pyramid-40);}.cls-22_the-great-pyramid-40{fill:url(#linear-gradient-7-the-great-pyramid-40);}.cls-23_the-great-pyramid-40{fill:url(#linear-gradient-5-the-great-pyramid-40);}.cls-24_the-great-pyramid-40{fill:url(#linear-gradient-6-the-great-pyramid-40);}</style>
    <linearGradient
       id="linear-gradient-the-great-pyramid-40"
       x1="739.46997"
       y1="1994.49"
       x2="731.62"
       y2="1876.63"
       gradientTransform="matrix(1,0,0,-1,-480.65,2261.35)"
       gradientUnits="userSpaceOnUse">
      <stop
         offset="0"
         stop-color="#231f20"
         stop-opacity="0"
         id="stop4" />
      <stop
         offset="1"
         stop-color="#231f20"
         id="stop6" />
    </linearGradient>
    <linearGradient
       id="linear-gradient-2-the-great-pyramid-40"
       x1="720.32001"
       y1="1980.3101"
       x2="709.46002"
       y2="1825.8199"
       xlink:href="#linear-gradient-the-great-pyramid-40" />
    <linearGradient
       id="linear-gradient-3-the-great-pyramid-40"
       x1="502.35999"
       y1="2070.04"
       x2="712.22998"
       y2="2070.04"
       gradientTransform="matrix(1,0,0,-1,-471,2323.65)"
       xlink:href="#linear-gradient-the-great-pyramid-40" />
    <linearGradient
       id="linear-gradient-4-the-great-pyramid-40"
       x1="607.28998"
       y1="2070.04"
       x2="712.22998"
       y2="2070.04"
       gradientTransform="matrix(1,0,0,-1,-471,2323.65)"
       xlink:href="#linear-gradient-the-great-pyramid-40" />
    <linearGradient
       id="linear-gradient-5-the-great-pyramid-40"
       x1="510.67001"
       y1="2003.2"
       x2="899.84998"
       y2="2115.29"
       gradientTransform="matrix(1,0,0,-1,-471,2323.65)"
       xlink:href="#linear-gradient-the-great-pyramid-40" />
    <linearGradient
       id="linear-gradient-6-the-great-pyramid-40"
       x1="731.46002"
       y1="2085.9099"
       x2="864.27002"
       y2="2085.9099"
       gradientTransform="matrix(1,0,0,-1,-471,2323.65)"
       xlink:href="#linear-gradient-the-great-pyramid-40" />
    <linearGradient
       id="linear-gradient-7-the-great-pyramid-40"
       x1="655.92999"
       y1="2018.86"
       x2="1036.72"
       y2="2098.48"
       gradientTransform="matrix(1,0,0,-1,-471,2323.65)"
       xlink:href="#linear-gradient-the-great-pyramid-40" />
    <linearGradient
       id="linear-gradient-8-the-great-pyramid-40"
       x1="889.89001"
       y1="2196.24"
       x2="915.03998"
       y2="1902.4"
       gradientTransform="matrix(1,0,0,-1,-471,2323.65)"
       xlink:href="#linear-gradient-the-great-pyramid-40" />
    <linearGradient
       id="linear-gradient-9-the-great-pyramid-40"
       x1="643.87"
       y1="1954.87"
       x2="644.46997"
       y2="1917.14"
       gradientTransform="matrix(1,0,0,-1,-471,2323.65)"
       gradientUnits="userSpaceOnUse">
      <stop
         offset="0"
         stop-color="#000"
         id="stop16" />
      <stop
         offset=".16"
         stop-color="#000"
         stop-opacity=".56"
         id="stop18" />
      <stop
         offset="1"
         stop-color="#000"
         stop-opacity="0"
         id="stop20" />
    </linearGradient>
    <linearGradient
       id="linear-gradient-10-the-great-pyramid-40"
       x1="651.29999"
       y1="1906.85"
       x2="652.23999"
       y2="1929.14"
       gradientTransform="matrix(1,0,0,-1,-480.65,2261.35)"
       gradientUnits="userSpaceOnUse">
      <stop
         offset=".02"
         stop-color="#fff"
         stop-opacity="0"
         id="stop23" />
      <stop
         offset=".58"
         stop-color="#fff"
         stop-opacity=".39"
         id="stop25" />
      <stop
         offset=".68"
         stop-color="#fff"
         stop-opacity=".68"
         id="stop27" />
      <stop
         offset="1"
         stop-color="#fff"
         id="stop29" />
    </linearGradient>
    <linearGradient
       id="linear-gradient-11-the-great-pyramid-40"
       x1="625.57001"
       y1="1904.08"
       x2="637.29999"
       y2="1925.8"
       xlink:href="#linear-gradient-the-great-pyramid-40" />
    <linearGradient
       id="linear-gradient-12-the-great-pyramid-40"
       x1="650.13"
       y1="1915.21"
       x2="655.29999"
       y2="1895.61"
       xlink:href="#linear-gradient-the-great-pyramid-40" />
    <linearGradient
       id="linear-gradient-13-the-great-pyramid-40"
       x1="662.77002"
       y1="1915.85"
       x2="678.27002"
       y2="1900.48"
       xlink:href="#linear-gradient-the-great-pyramid-40" />
    <linearGradient
       id="linear-gradient-14-the-great-pyramid-40"
       x1="637.87"
       y1="1920.47"
       x2="685.28003"
       y2="1934.5601"
       gradientTransform="matrix(1,0,0,-1,-480.65,2261.35)"
       xlink:href="#linear-gradient-9-the-great-pyramid-40" />
    <linearGradient
       id="linear-gradient-15-the-great-pyramid-40"
       x1="641.46002"
       y1="1921.92"
       x2="678.28998"
       y2="1932.86"
       gradientTransform="matrix(1,0,0,-1,-480.65,2261.35)"
       xlink:href="#linear-gradient-9-the-great-pyramid-40" />
    <linearGradient
       id="linear-gradient-16-the-great-pyramid-40"
       x1="720.71997"
       y1="1952.74"
       x2="721.33002"
       y2="1915.01"
       xlink:href="#linear-gradient-9-the-great-pyramid-40" />
    <linearGradient
       id="linear-gradient-17-the-great-pyramid-40"
       x1="728.10999"
       y1="1904.71"
       x2="729.03998"
       y2="1927.02"
       xlink:href="#linear-gradient-10-the-great-pyramid-40" />
    <linearGradient
       id="linear-gradient-18-the-great-pyramid-40"
       x1="702.42999"
       y1="1901.9399"
       x2="714.16998"
       y2="1923.65"
       xlink:href="#linear-gradient-the-great-pyramid-40" />
    <linearGradient
       id="linear-gradient-19-the-great-pyramid-40"
       x1="726.96997"
       y1="1913.08"
       x2="732.13"
       y2="1893.48"
       xlink:href="#linear-gradient-the-great-pyramid-40" />
    <linearGradient
       id="linear-gradient-20-the-great-pyramid-40"
       x1="739.62"
       y1="1913.72"
       x2="755.10999"
       y2="1898.35"
       xlink:href="#linear-gradient-the-great-pyramid-40" />
    <linearGradient
       id="linear-gradient-21-the-great-pyramid-40"
       x1="714.71997"
       y1="1918.34"
       x2="762.13"
       y2="1932.42"
       gradientTransform="matrix(1,0,0,-1,-480.65,2261.35)"
       xlink:href="#linear-gradient-9-the-great-pyramid-40" />
    <linearGradient
       id="linear-gradient-22-the-great-pyramid-40"
       x1="718.31"
       y1="1919.79"
       x2="755.14001"
       y2="1930.73"
       gradientTransform="matrix(1,0,0,-1,-480.65,2261.35)"
       xlink:href="#linear-gradient-9-the-great-pyramid-40" />
    <linearGradient
       inkscape:collect="always"
       xlink:href="#linear-gradient-9-the-great-pyramid-40"
       id="linearGradient398"
       gradientUnits="userSpaceOnUse"
       gradientTransform="matrix(1,0,0,-1,-471,2323.65)"
       x1="643.87"
       y1="1954.87"
       x2="644.46997"
       y2="1917.14" />
    <linearGradient
       inkscape:collect="always"
       xlink:href="#linear-gradient-10-the-great-pyramid-40"
       id="linearGradient400"
       gradientUnits="userSpaceOnUse"
       gradientTransform="matrix(1,0,0,-1,-480.65,2261.35)"
       x1="651.29999"
       y1="1906.85"
       x2="652.23999"
       y2="1929.14" />
  </defs>
  <g
     id="g396"
     transform="matrix(4.1181544,0,0,4.1181537,-62.347728,-457.56961)">
    <g
       id="background_the-great-pyramid-40">
      <path
         class="cls-16_the-great-pyramid-40 targetColor"
         d="M 464.95,175.22 C 444.01,131.79 409.06,96.66 365.74,75.49 342.69,64.34 316.98,57.32 291.54,60.06 c -30.5,3.33 -57.93,20.23 -88.03,26.15 -22.08,4.34 -45.02,2.65 -67.1,6.93 -30.36,5.99 -57.51,22.83 -76.38,47.36 -11.26,14.76 -19.12,31.82 -26.04,49.05 -17.72,44.1 -30.07,92.57 -19.89,139 0.97,4.45 2.62,9.44 6.81,11.22 1.62,0.59 3.33,0.89 5.06,0.89 l 270,16.38 c 32.43,1.97 65.17,3.93 97.27,-1.14 32.41,-5.12 83.28,-20.08 90.04,-56.42 7.64,-41.18 -0.43,-86.8 -18.32,-124.27 z"
         style="fill:#594c21"
         id="path46" />
      <path
         class="cls-25_the-great-pyramid-40 targetColor"
         d="m 472.57,333.04 c -8,8.1 -16.11,16.28 -24.44,24.24 -29.25,27.91 -61.22,53.16 -99.89,62.93 -68.97,17.46 -139.83,-18.34 -210.93,-19.84 -21.79,-0.46 -43.73,2.33 -65.32,-0.63 -20.48,-2.79 -41.47,-11.93 -52.42,-29.18 -0.63,-0.96 -1.2,-1.94 -1.75,-2.96 -45.86,-84.64 133.08,-66.35 166.31,-66.61 92.43,-0.73 184.83,2.43 277.19,5.57 7.45,0.26 16.67,1.72 19.03,8.79 2.18,6.49 -3,12.85 -7.78,17.69 z"
         style="fill:#594c21"
         id="path48" />
      <path
         class="cls-2_the-great-pyramid-40"
         d="m 75.36,328.58 c 12.29,-0.23 24.44,-2.72 36.68,-3.28 44.79,-2.03 88.86,21.68 133.06,14.11 11.02,-1.88 21.68,-5.68 32.81,-6.86 13.06,-1.39 26.2,0.83 39.33,0.76 22.58,-0.19 44.74,-7.35 67.3,-6.67 17.04,0.52 33.68,5.49 50.71,6.33 17.02,0.83 35.85,-3.58 45.8,-17.42 -6.36,-6.14 -16.12,-6.57 -24.96,-6.67 -113.13,-0.91 -226.32,-1.82 -339.41,2.03 -15.66,0.56 -31.31,1.18 -46.95,1.88 -11.91,0.55 -28.76,-1.35 -39.63,2.91 10.91,9.03 31.64,13.14 45.27,12.87 z"
         id="path50" />
      <path
         class="cls-18_the-great-pyramid-40"
         d="M 448.12,357.29 C 418.87,385.2 386.9,410.45 348.23,420.22 279.26,437.68 208.4,401.88 137.3,400.38 115.51,399.92 93.57,402.71 71.98,399.75 51.5,396.96 30.51,387.82 19.56,370.57 c 5.73,-2.13 23.8,5.52 29.46,6.18 22.59,2.67 45.51,-0.33 67.76,-4.41 33.74,-6.2 67.97,-14.87 101.94,-9.95 14.11,2.05 27.77,6.4 41.64,9.76 62.66,14.99 128.47,9.46 187.75,-15.76 0,0.3 0,0.6 0,0.9 z"
         id="path52"
         style="fill:url(#linear-gradient-2-the-great-pyramid-40)" />
    </g>
    <g
       id="pyramid_the-great-pyramid-40">
      <polygon
         class="cls-25_the-great-pyramid-40 targetColor"
         points="136.29,193.85 241.23,313.38 136.29,313.38 31.36,313.38 "
         style="fill:#594c21"
         id="polygon55" />
      <polygon
         class="cls-19_the-great-pyramid-40"
         points="136.29,193.85 241.23,313.38 136.29,313.38 31.36,313.38 "
         id="polygon57"
         style="fill:url(#linear-gradient-3-the-great-pyramid-40)" />
      <polygon
         class="cls-17_the-great-pyramid-40"
         points="241.23,313.38 136.29,193.85 195.78,313.38 "
         id="polygon59"
         style="fill:url(#linear-gradient-4-the-great-pyramid-40)" />
      <polygon
         class="cls-25_the-great-pyramid-40 targetColor"
         points="241.23,313.38 136.29,193.85 195.78,313.38 "
         style="fill:#594c21"
         id="polygon61" />
      <polygon
         class="cls-25_the-great-pyramid-40 targetColor"
         points="260.46,162.09 393.27,313.38 260.46,313.38 127.65,313.38 "
         style="fill:#594c21"
         id="polygon63" />
      <polygon
         class="cls-23_the-great-pyramid-40"
         points="260.46,162.09 393.27,313.38 260.46,313.38 127.65,313.38 "
         id="polygon65"
         style="fill:url(#linear-gradient-5-the-great-pyramid-40)" />
      <polygon
         class="cls-25_the-great-pyramid-40 targetColor"
         points="270.86,212.13 279.09,201.54 290.47,196.27 260.46,164.12 227.62,199.52 244.85,217.04 252.42,219.64 262.63,213.57 "
         style="fill:#594c21"
         id="polygon67" />
      <polygon
         class="cls-25_the-great-pyramid-40 targetColor"
         points="270.86,210.11 279.09,199.52 290.47,196.27 260.46,162.09 227.62,199.52 244.85,215.02 252.42,217.62 262.63,211.56 "
         style="fill:#594c21"
         id="polygon69" />
      <polygon
         class="cls-25_the-great-pyramid-40 targetColor"
         points="393.27,313.38 260.46,162.09 335.75,313.38 "
         style="fill:#594c21"
         id="polygon71" />
      <polygon
         class="cls-24_the-great-pyramid-40"
         points="393.27,313.38 260.46,162.09 335.75,313.38 "
         id="polygon73"
         style="fill:url(#linear-gradient-6-the-great-pyramid-40)" />
      <polygon
         class="cls-25_the-great-pyramid-40 targetColor"
         points="377.22,193.85 482.16,313.38 377.22,313.38 272.29,313.38 "
         style="fill:#594c21"
         id="polygon75" />
      <polygon
         class="cls-22_the-great-pyramid-40"
         points="377.22,193.85 482.16,313.38 377.22,313.38 272.29,313.38 "
         id="polygon77"
         style="fill:url(#linear-gradient-7-the-great-pyramid-40)" />
      <polygon
         class="cls-20_the-great-pyramid-40"
         points="482.16,313.38 377.22,193.85 436.71,313.38 "
         id="polygon79"
         style="fill:url(#linear-gradient-8-the-great-pyramid-40)" />
      <line
         class="cls-1_the-great-pyramid-40"
         x1="377.22"
         y1="193.85001"
         x2="436.70999"
         y2="313.37"
         id="line81" />
      <path
         class="cls-25_the-great-pyramid-40 targetColor"
         d="m 139.03,279.78 c -0.63,0.2 -1.16,0.64 -1.47,1.23"
         style="fill:#594c21"
         id="path83" />
      <path
         class="cls-25_the-great-pyramid-40 targetColor"
         d="m 215.89,281.91 c -0.63,0.2 -1.16,0.64 -1.47,1.23"
         style="fill:#594c21"
         id="path85" />
    </g>
    <g
       id="camel_the-great-pyramid-40">
      <ellipse
         class="cls-21_the-great-pyramid-40"
         cx="173.07001"
         cy="381.60001"
         rx="35.029999"
         ry="4.7600002"
         id="ellipse88"
         style="fill:url(#linearGradient398)" />
      <path
         class="cls-25_the-great-pyramid-40 targetColor"
         d="m 199.63,344.35 c -4.32,-0.29 -8.36,-2.25 -11.26,-5.46 -0.32,-0.67 -0.7,-1.31 -1.13,-1.92 -1.13,-4.21 -4.64,-8.67 -7.83,-9.71 -3.62,-0.71 -2.45,5.59 -5.58,5.43 -4.9,-0.25 -4.92,-5.04 -7.64,-6.38 -3.99,-0.63 -7.22,5 -7.36,10.15 -0.89,3.68 -1.29,7.5 -4.38,7.17 -5.84,-0.68 -1.18,-9.17 -3.12,-13.82 0.16,-0.37 0.28,-0.76 0.35,-1.16 0.18,-1.16 -0.91,-3.18 -1.4,-3.18 -0.49,0 -0.17,0.83 -0.92,1.76 -1.33,-1.07 -3.83,-1.03 -6.56,0.58 -0.73,0.23 -1.5,0.5 -2.23,0.78 v 0 l -4.9,0.79 0.08,1.67 c -0.13,0.2 -0.23,0.42 -0.3,0.66 h -0.08 c -0.58,-0.09 -1.08,0.06 -1.13,0.34 -0.05,0.28 0.35,0.54 0.88,0.65 l 0.21,0.53 h 0.07 c -0.33,0.13 -0.54,0.32 -0.53,0.51 0.01,0.19 0.46,0.39 0.99,0.37 0.04,0.08 0.08,0.16 0.13,0.24 0.88,1.45 3.78,0.93 5,-0.93 0.31,-0.01 0.63,0.01 0.93,0.08 0.62,1.01 1.71,1.64 2.9,1.67 0.02,0.84 0.14,1.68 0.33,2.5 -0.54,1.24 -0.71,2.62 -0.48,3.95 0.19,-0.86 0.47,-1.7 0.83,-2.5 v 0 c -0.3,1.3 -0.22,2.66 0.24,3.92 0.03,-0.74 0.12,-1.47 0.26,-2.19 -0.04,1.51 0.4,2.99 1.25,4.24 -0.13,-0.62 -0.23,-1.24 -0.29,-1.87 l 0.33,0.74 c 0.17,1.4 0.75,2.72 1.67,3.79 0,0 -0.22,-0.67 -0.38,-1.39 2.59,4.43 6.43,7.81 11.11,5.39 2.07,5 2.96,6.72 1.86,10.55 -0.53,0.57 -0.84,1.3 -0.88,2.07 -0.14,0.89 0.31,1.78 1.11,2.19 0.61,2.29 1.3,6.46 -0.63,9.17 v 0 c -0.46,0.49 -0.58,1.2 -0.32,1.81 -0.24,0.83 -0.57,1.63 -0.99,2.38 -3.14,1.78 -6.61,4.1 1.39,3.2 3.83,-0.43 2.83,-2.1 1.67,-3.2 -0.26,-0.43 -0.23,-0.83 0.25,-1.48 0.12,-0.04 0.24,-0.1 0.34,-0.18 0.49,-0.31 0.78,-0.86 0.77,-1.43 v 0 l -0.05,-0.3 c 0,0 0,-0.03 0,-0.04 -0.77,-4.63 -1.31,-7.1 -0.36,-10.6 0.53,-0.57 0.85,-1.3 0.89,-2.08 0.1,-0.76 -0.2,-1.52 -0.79,-2.01 -0.45,-2.03 -0.3,-4.15 0.45,-6.09 l 0.14,0.2 v 0.04 c 0.22,0.3 0.41,0.59 0.6,0.83 0.02,0.05 0.05,0.09 0.08,0.13 0.35,0.53 0.67,1.09 0.94,1.67 0,0 0,0.08 0.04,0.11 0.1,0.23 0.19,0.47 0.28,0.7 0.02,0.06 0.04,0.11 0.06,0.17 0.08,0.26 0.15,0.52 0.21,0.78 v 0.05 c 0.06,0.28 0.11,0.58 0.14,0.89 0,0.06 0,0.13 0,0.19 0,0.25 0,0.52 0.04,0.83 0,0.04 0,0.09 0,0.13 -0.08,0.12 -0.15,0.25 -0.2,0.38 v 0 c -0.05,0.13 -0.08,0.27 -0.1,0.42 0,0.02 0,0.05 0,0.08 0,0.14 0,0.27 0,0.41 v 0.12 c 0.01,0.18 0.05,0.36 0.09,0.53 0.04,0.15 0.09,0.29 0.15,0.43 0.02,0.05 0.04,0.1 0.07,0.14 0,0.09 0.09,0.18 0.14,0.28 l 0.08,0.13 c 0.07,0.11 0.15,0.21 0.23,0.31 l 0.05,0.06 0.28,0.28 0.12,0.08 c 0.07,0.06 0.15,0.12 0.23,0.17 l 0.11,0.07 c 0.11,0.06 0.23,0.11 0.35,0.16 v 0 l 0.15,0.26 0.17,0.28 0.16,0.27 0.28,0.5 0.11,0.21 c 0.1,0.18 0.19,0.37 0.28,0.55 l 0.11,0.23 0.28,0.6 c 0,0 0,0.08 0.06,0.13 0.1,0.23 0.2,0.48 0.29,0.73 l 0.08,0.2 c 0.08,0.2 0.14,0.41 0.2,0.62 0,0.06 0,0.12 0.06,0.18 0.07,0.25 0.13,0.5 0.19,0.76 v 0.17 c 0.04,0.21 0.08,0.42 0.1,0.62 v 0.19 c 0.02,0.24 0.02,0.49 0,0.73 v 0.11 c 0,0.2 -0.03,0.4 -0.07,0.6 0,0.07 0,0.13 -0.04,0.18 -0.05,0.23 -0.11,0.45 -0.2,0.67 v 0 c -0.07,0.11 -0.12,0.23 -0.14,0.36 v 0 c -0.05,0.28 -0.02,0.57 0.1,0.83 v 0 c 0.07,0.14 0.14,0.27 0.23,0.4 v 1.02 c 0,0.07 0,0.35 -0.07,0.52 -0.07,0.17 -0.04,0.22 -0.06,0.32 -0.02,0.1 -0.04,0.22 -0.07,0.33 v 0 l -0.19,0.13 -0.08,0.05 -0.2,0.13 -0.07,0.04 -0.22,0.14 h -0.04 l -0.66,0.45 -0.09,0.06 -0.16,0.12 -0.1,0.08 -0.14,0.1 -0.1,0.08 -0.13,0.1 -0.1,0.09 c 0,0 -0.08,0.06 -0.11,0.09 l -0.12,0.1 -0.1,0.1 -0.14,0.14 -0.06,0.07 c 0,0 -0.06,0.07 -0.08,0.11 -0.02,0.02 -0.04,0.04 -0.05,0.07 l -0.07,0.1 c 0,0 0,0.04 0,0.06 l -0.05,0.1 v 0.15 0 c -0.01,0.09 0.02,0.19 0.08,0.26 v 0 c 0,0 0.06,0.06 0.09,0.08 0.01,0 0.03,0 0.04,0 l 0.12,0.07 h 0.06 l 0.16,0.06 h 0.08 l 0.23,0.05 h 0.06 c 0.26,0.05 0.52,0.07 0.78,0.08 h 1.95 l 0.53,-0.04 h 0.2 l 0.83,-0.08 0.58,-0.08 v 0 c 3.06,-0.53 1.67,-2.02 0.3,-3.01 -0.32,-0.38 -0.35,-0.92 -0.08,-1.33 0.17,-0.04 0.33,-0.12 0.48,-0.23 0.56,-0.49 0.61,-1.34 0.12,-1.89 -0.02,-0.03 -0.05,-0.06 -0.08,-0.08 -1.02,-1.98 -1.83,-3.56 -2.43,-5 v 0 c -0.11,-0.25 -0.2,-0.5 -0.29,-0.74 v 0 c -0.49,-1.29 -0.77,-2.66 -0.83,-4.04 0.37,-0.59 0.46,-1.31 0.26,-1.98 -0.21,-0.81 -0.73,-1.5 -1.44,-1.92 -1.35,-2.17 -1.78,-4.79 -1.2,-7.28 3.64,1.36 7.42,0.7 10.73,-0.64 v 2.09 c 0,0.28 0.04,0.57 0.06,0.83 v 0.3 l 0.1,0.83 v 0.25 c 0.04,0.28 0.08,0.55 0.13,0.83 v 0.21 c 0.05,0.27 0.12,0.53 0.18,0.83 0,0.06 0.02,0.11 0.04,0.17 0.07,0.27 0.14,0.53 0.23,0.78 0.01,0.05 0.03,0.09 0.04,0.13 0.08,0.26 0.18,0.51 0.28,0.76 0,0.04 0,0.07 0,0.11 0.1,0.25 0.21,0.49 0.33,0.73 v 0.08 c 0.12,0.24 0.25,0.48 0.38,0.71 v 0.05 c 0.14,0.23 0.29,0.46 0.44,0.68 v 0 c 0.17,0.23 0.33,0.43 0.52,0.64 v 0 l 0.18,0.2 v 0 c 0.05,0.14 0.09,0.3 0.13,0.47 v 0.06 c 0.04,0.17 0.09,0.34 0.13,0.53 l 0.05,0.19 c 0,0.17 0.08,0.34 0.11,0.53 0,0.06 0,0.11 0,0.17 0.05,0.22 0.08,0.43 0.13,0.67 v 0.27 c 0,0.09 0.04,0.32 0.06,0.48 0.02,0.16 0,0.2 0,0.3 0,0.23 0.05,0.48 0.06,0.72 v 1.89 c 0,0.23 -0.07,0.47 -0.11,0.7 0,0.1 -0.04,0.2 -0.07,0.3 -0.03,0.15 -0.07,0.3 -0.12,0.45 0,0.1 -0.06,0.2 -0.09,0.3 -0.07,0.2 -0.15,0.4 -0.24,0.59 l -0.13,0.27 c -0.07,0.12 -0.13,0.23 -0.21,0.34 -0.13,0.1 -0.24,0.22 -0.33,0.36 v 0 c -0.03,0.05 -0.06,0.1 -0.08,0.16 l -0.05,0.1 v 0.29 c 0,0 0,0.09 0,0.13 0,0.06 0,0.12 0,0.18 v 0.12 l 0.05,0.2 v 0.1 c 0.03,0.09 0.07,0.17 0.12,0.25 v 0 0.13 l 0.21,0.52 c -0.03,0.13 -0.06,0.25 -0.1,0.38 l -0.05,0.18 c -0.07,0.19 -0.13,0.38 -0.21,0.58 l -0.08,0.18 -0.1,0.24 c -0.62,0.32 -1.26,0.65 -1.84,0.99 h -0.06 l -0.25,0.15 -0.08,0.04 -0.21,0.13 -0.08,0.06 c -0.07,0.04 -0.14,0.08 -0.2,0.13 l -0.07,0.04 -0.23,0.17 v 0 c -0.08,0.05 -0.15,0.11 -0.22,0.18 v 0 c -0.06,0.04 -0.11,0.08 -0.15,0.13 l -0.05,0.05 -0.1,0.11 v 0.05 c 0,0 -0.06,0.06 -0.08,0.1 0,0.02 0,0.03 0,0.05 l -0.05,0.11 c 0,0 0,0.03 0,0.04 0,0.04 0,0.08 0,0.13 v 0 c 0,0 0,0.08 0,0.13 v 0 c 0,0 0.04,0.06 0.07,0.08 v 0 l 0.1,0.07 h 0.06 l 0.13,0.06 h 0.08 l 0.19,0.05 h 0.08 c 0.24,0.06 0.49,0.09 0.74,0.1 h 2.63 l 0.83,-0.06 c 0.26,0 0.48,-0.04 0.69,-0.08 h 0.14 c 0.36,-0.05 0.71,-0.15 1.04,-0.28 v 0 c 1.46,-0.6 0.71,-1.73 -0.19,-2.58 -0.23,-0.38 -0.21,-0.76 0.18,-1.3 0.77,-0.26 1.18,-1.09 0.92,-1.86 -0.01,-0.04 -0.03,-0.07 -0.04,-0.11 -0.37,-1.65 -0.61,-3.32 -0.7,-5 v 0 -0.31 c -0.02,-1.8 0.26,-3.58 0.83,-5.29 0.3,-0.48 0.46,-1.05 0.45,-1.62 0.01,-0.9 -0.47,-1.74 -1.27,-2.18 -0.25,-1.35 -0.23,-2.73 0.05,-4.07 1.25,2.4 2.94,4.54 5,6.29 l 0.26,0.21 v 0 c 1.5,2.33 4.3,7.21 3.4,10.11 -0.37,0.55 -0.29,1.28 0.18,1.73 0.12,0.56 0.18,1.13 0.17,1.71 -2.66,1.79 -6.54,4.62 1.94,3.79 3.78,-0.37 2.1,-2.15 0.52,-3.33 -0.19,-0.4 -0.19,-0.86 0,-1.26 0.15,-0.05 0.29,-0.13 0.42,-0.23 0.5,-0.49 0.51,-1.28 0.02,-1.78 -0.03,-0.03 -0.06,-0.06 -0.09,-0.09 -2.65,-4.74 -3.61,-7.3 -3.85,-11 0.12,-0.56 0.06,-1.14 -0.17,-1.67 -0.39,-1.01 -1.15,-1.84 -2.13,-2.3 -3.24,-6.17 -0.5,-8.22 -0.83,-11.4 0.46,-1.36 0.65,-2.79 0.57,-4.23 -0.15,-1.21 -0.47,-2.39 -0.93,-3.52 2.87,2.87 6.69,4.61 10.74,4.9 0,0.04 0,0.07 0,0.11 1.38,2.82 6.18,1.47 8.59,-2.55 -2.87,2.25 -7.66,1.22 -8.48,1.99 z"
         style="fill:#594c21"
         id="path90" />
      <path
         class="cls-15_the-great-pyramid-40"
         d="m 208.12,342.33 c -2.4,4.02 -7.21,5.37 -8.59,2.55 v -0.12 c -4.05,-0.29 -7.86,-2.03 -10.74,-4.89 0.32,0.77 0.57,1.56 0.74,2.37 v 0 c 0.08,0.38 0.15,0.76 0.19,1.14 0.08,1.43 -0.11,2.86 -0.57,4.22 0.3,3.18 -2.44,5.23 0.83,11.41 0.99,0.46 1.76,1.28 2.14,2.3 0.22,0.53 0.28,1.11 0.16,1.67 0.07,1.23 0.26,2.45 0.57,3.64 0.78,2.58 1.89,5.05 3.29,7.35 0.53,0.46 0.6,1.26 0.14,1.8 -0.02,0.03 -0.05,0.05 -0.07,0.08 -0.12,0.1 -0.26,0.17 -0.41,0.22 -0.19,0.4 -0.19,0.87 0,1.27 1.58,1.17 3.27,2.95 -0.51,3.33 -8.5,0.83 -4.61,-1.99 -1.94,-3.79 0,-0.57 -0.07,-1.13 -0.2,-1.68 -0.43,-0.41 -0.54,-1.06 -0.27,-1.59 0.89,-2.9 -1.9,-7.79 -3.41,-10.11 v 0 c -0.09,-0.06 -0.18,-0.13 -0.27,-0.21 -1.29,-1.08 -2.43,-2.32 -3.38,-3.7 -0.59,-0.83 -1.12,-1.7 -1.6,-2.59 0,0.16 -0.07,0.33 -0.09,0.5 v 0 c -0.19,1.18 -0.17,2.38 0.04,3.56 0.8,0.43 1.28,1.27 1.27,2.18 0.02,0.57 -0.14,1.14 -0.45,1.62 -0.57,1.71 -0.85,3.5 -0.83,5.29 v 0.15 c 0,0.05 0,0.11 0,0.16 v 0 c 0.1,1.68 0.33,3.36 0.7,5 0.28,0.65 0.05,1.41 -0.54,1.8 -0.11,0.06 -0.22,0.12 -0.33,0.16 -0.35,0.35 -0.42,0.89 -0.17,1.31 0.89,0.83 1.67,1.98 0.18,2.58 v 0 c -0.33,0.13 -0.68,0.22 -1.03,0.27 h -0.14 c -0.22,0 -0.44,0.06 -0.69,0.08 l -0.83,0.05 h -2.63 c -0.25,-0.02 -0.5,-0.05 -0.74,-0.1 h -0.08 c -0.06,0 -0.13,-0.02 -0.18,-0.05 h -0.08 l -0.13,-0.06 h -0.06 l -0.09,-0.07 v 0 c 0,0 -0.05,-0.06 -0.07,-0.09 v 0 c 0,0 0,-0.08 0,-0.13 v 0 c 0,0 0,-0.08 0,-0.13 0,-0.01 0,-0.03 0,-0.04 0,-0.03 0,-0.07 0,-0.1 v -0.05 l 0.08,-0.1 v -0.06 l 0.1,-0.11 0.05,-0.05 0.15,-0.13 v 0 l 0.22,-0.18 v 0 c 0.07,-0.06 0.15,-0.12 0.23,-0.17 l 0.07,-0.05 0.2,-0.13 0.08,-0.05 0.21,-0.13 0.08,-0.05 0.24,-0.14 h 0.06 c 0.58,-0.34 1.23,-0.68 1.84,-0.99 l 0.1,-0.25 c 0.03,-0.06 0.06,-0.12 0.08,-0.18 0.08,-0.19 0.15,-0.38 0.21,-0.58 0,-0.06 0,-0.12 0.06,-0.18 0.06,-0.06 0.07,-0.25 0.09,-0.37 0.02,-0.08 0.04,-0.17 0.05,-0.25 v -0.13 0 c -0.04,-0.08 -0.08,-0.16 -0.11,-0.25 0,-0.04 0,-0.07 0,-0.11 0,-0.06 0,-0.13 0,-0.19 v -0.29 c 0,0 0,-0.09 0,-0.14 v -0.28 l 0.05,-0.1 c 0.02,-0.06 0.05,-0.11 0.08,-0.17 v 0 c 0.09,-0.14 0.21,-0.26 0.34,-0.35 0.07,-0.12 0.14,-0.23 0.2,-0.35 0.05,-0.08 0.1,-0.17 0.14,-0.26 0.09,-0.19 0.17,-0.39 0.23,-0.59 0.04,-0.1 0.07,-0.2 0.1,-0.31 0.03,-0.11 0.08,-0.29 0.12,-0.44 0.04,-0.15 0.04,-0.2 0.07,-0.31 0.03,-0.11 0.08,-0.46 0.1,-0.7 v -1.89 c 0,-0.24 0,-0.48 -0.06,-0.72 v -0.29 c 0,-0.09 -0.04,-0.33 -0.07,-0.49 -0.03,-0.16 0,-0.18 0,-0.27 0,-0.23 -0.08,-0.45 -0.12,-0.67 0,-0.06 0,-0.11 0,-0.17 -0.04,-0.18 -0.08,-0.35 -0.12,-0.52 -0.04,-0.17 0,-0.13 0,-0.19 0,-0.06 -0.09,-0.37 -0.14,-0.53 v -0.05 l -0.13,-0.48 v 0 c -0.06,-0.06 -0.12,-0.12 -0.18,-0.19 v 0 c -0.18,-0.21 -0.35,-0.42 -0.51,-0.65 v 0 c -0.16,-0.22 -0.31,-0.45 -0.45,-0.68 0,-0.02 0,-0.04 0,-0.06 -0.13,-0.23 -0.26,-0.46 -0.38,-0.7 0,-0.03 0,-0.06 0,-0.08 -0.11,-0.23 -0.23,-0.48 -0.33,-0.73 v -0.11 c -0.1,-0.24 -0.19,-0.5 -0.28,-0.76 0,-0.04 0,-0.08 -0.04,-0.13 -0.08,-0.25 -0.16,-0.52 -0.23,-0.78 -0.02,-0.05 -0.03,-0.11 -0.04,-0.17 -0.07,-0.26 -0.13,-0.53 -0.18,-0.83 v -0.2 c -0.05,-0.28 -0.1,-0.54 -0.14,-0.83 v -0.24 c 0,-0.28 -0.07,-0.55 -0.09,-0.83 v -0.29 c 0,-0.28 -0.05,-0.55 -0.07,-0.83 v -2.09 L 179,354.4 c -3.26,1.28 -6.94,1.89 -10.52,0.56 -0.58,2.49 -0.14,5.11 1.2,7.28 0.72,0.42 1.24,1.11 1.44,1.92 0.21,0.66 0.11,1.38 -0.25,1.98 0.05,1.38 0.33,2.75 0.83,4.04 v 0 c 0.09,0.24 0.19,0.49 0.29,0.74 v 0 c 0.27,0.64 0.58,1.32 0.93,2.04 0.43,0.88 0.93,1.86 1.49,2.95 0.54,0.46 0.6,1.26 0.15,1.8 -0.17,0.2 -0.4,0.35 -0.66,0.41 -0.28,0.41 -0.25,0.96 0.08,1.33 1.38,0.99 2.76,2.5 -0.29,3.01 v 0 c -0.18,0 -0.37,0.06 -0.58,0.08 -0.21,0.02 -0.54,0.07 -0.83,0.08 h -0.2 l -0.53,0.04 h -1.88 c -0.3,0 -0.56,-0.03 -0.78,-0.08 h -0.06 c -0.08,-0.01 -0.15,-0.03 -0.23,-0.05 h -0.07 l -0.17,-0.06 h -0.06 l -0.12,-0.08 h -0.04 l -0.09,-0.08 v 0 c -0.06,-0.07 -0.08,-0.17 -0.08,-0.26 v 0 c 0,0 0,-0.07 0,-0.1 v -0.06 c 0,0 0.02,-0.06 0.04,-0.09 v -0.07 l 0.07,-0.1 0.05,-0.07 0.09,-0.1 0.05,-0.07 0.14,-0.14 0.1,-0.1 0.12,-0.11 0.11,-0.09 0.11,-0.08 0.13,-0.1 0.1,-0.08 0.14,-0.11 0.11,-0.08 0.16,-0.12 0.08,-0.06 c 0.22,-0.15 0.43,-0.3 0.66,-0.44 h 0.05 l 0.21,-0.13 0.07,-0.04 0.21,-0.13 0.08,-0.05 0.19,-0.12 v 0 c 0,-0.11 0.04,-0.22 0.07,-0.33 0.03,-0.11 0,-0.21 0.06,-0.32 l 0.08,-0.52 v -0.81 c 0,-0.07 0,-0.14 0,-0.22 -0.09,-0.12 -0.16,-0.25 -0.23,-0.39 v 0 c -0.12,-0.26 -0.16,-0.55 -0.11,-0.83 v 0 c 0.03,-0.13 0.08,-0.25 0.14,-0.36 v 0 c 0.09,-0.21 0.16,-0.43 0.21,-0.66 v -0.18 c 0.03,-0.2 0.06,-0.4 0.07,-0.6 0,-0.04 0,-0.08 0,-0.12 0.02,-0.24 0.02,-0.48 0,-0.73 0,-0.06 0,-0.13 0,-0.19 0,-0.21 -0.06,-0.42 -0.09,-0.62 0,-0.06 0,-0.12 0,-0.18 -0.06,-0.25 -0.12,-0.5 -0.19,-0.76 L 171,371.42 c -0.06,-0.18 -0.12,-0.36 -0.18,-0.54 v -0.08 l -0.08,-0.2 c -0.09,-0.25 -0.18,-0.49 -0.29,-0.73 0,-0.04 -0.04,-0.08 -0.06,-0.13 l -0.28,-0.59 c 0,-0.08 -0.07,-0.15 -0.11,-0.23 -0.04,-0.08 -0.18,-0.38 -0.28,-0.55 l -0.12,-0.21 -0.28,-0.5 -0.15,-0.28 c -0.06,-0.09 -0.12,-0.18 -0.17,-0.28 l -0.16,-0.26 v 0 c -0.12,-0.04 -0.23,-0.09 -0.34,-0.16 l -0.12,-0.07 -0.23,-0.16 -0.11,-0.09 c -0.1,-0.08 -0.2,-0.17 -0.28,-0.27 l -0.05,-0.06 c -0.08,-0.1 -0.16,-0.2 -0.23,-0.31 l -0.08,-0.13 c -0.06,-0.09 -0.11,-0.18 -0.15,-0.28 l -0.07,-0.13 c -0.06,-0.14 -0.11,-0.29 -0.15,-0.43 -0.05,-0.18 -0.08,-0.36 -0.08,-0.54 v -0.11 c 0,-0.14 0,-0.28 0,-0.42 v -0.08 c 0.02,-0.14 0.06,-0.27 0.1,-0.41 v 0 c 0.05,-0.14 0.12,-0.27 0.2,-0.39 v -0.13 c 0,-0.28 0,-0.53 -0.05,-0.79 v -0.18 c -0.03,-0.3 -0.08,-0.6 -0.14,-0.9 v 0 c -0.06,-0.27 -0.13,-0.53 -0.21,-0.78 0,-0.06 -0.04,-0.12 -0.06,-0.18 -0.08,-0.24 -0.17,-0.47 -0.27,-0.69 l -0.05,-0.12 c -0.27,-0.58 -0.59,-1.13 -0.94,-1.67 l -0.08,-0.13 -0.38,-0.57 -0.22,-0.3 v -0.04 l -0.15,-0.21 c -0.75,1.94 -0.9,4.06 -0.44,6.09 0.6,0.49 0.91,1.25 0.83,2.02 -0.05,0.77 -0.37,1.5 -0.89,2.07 -0.96,3.5 -0.42,5.97 0.36,10.6 v 0 c 0,0.11 0.04,0.2 0.06,0.31 v 0 c 0,0.58 -0.29,1.12 -0.78,1.44 -0.11,0.07 -0.22,0.13 -0.34,0.18 -0.48,0.63 -0.51,1.04 -0.25,1.47 1.15,1.1 2.14,2.77 -1.67,3.2 -8,0.91 -4.53,-1.43 -1.39,-3.2 0.43,-0.75 0.76,-1.55 1,-2.38 -0.27,-0.61 -0.15,-1.32 0.31,-1.81 v 0 c 1.94,-2.73 1.24,-6.9 0.63,-9.17 -0.8,-0.42 -1.25,-1.31 -1.11,-2.2 0.05,-0.77 0.37,-1.49 0.88,-2.06 1.08,-3.75 0.25,-5.46 -1.72,-10.22 -0.05,-0.11 -0.09,-0.23 -0.14,-0.34 -4.69,2.43 -8.52,-0.95 -11.11,-5.39 0.17,0.73 0.38,1.39 0.38,1.39 -0.92,-1.07 -1.5,-2.38 -1.67,-3.79 -0.12,-0.24 -0.23,-0.49 -0.33,-0.73 0.06,0.63 0.16,1.25 0.29,1.87 -0.85,-1.25 -1.29,-2.73 -1.25,-4.24 -0.14,0.73 -0.22,1.46 -0.25,2.2 -0.46,-1.26 -0.55,-2.62 -0.25,-3.93 v 0 c -0.36,0.8 -0.64,1.64 -0.83,2.5 -0.23,-1.33 -0.06,-2.7 0.48,-3.94 -0.19,-0.79 -0.3,-1.6 -0.33,-2.42 v -0.08 c -1.19,-0.03 -2.28,-0.65 -2.9,-1.67 -0.31,-0.06 -0.62,-0.09 -0.93,-0.08 -1.21,1.86 -4.11,2.37 -5,0.92 l -0.13,-0.23 c -0.53,0 -0.96,-0.13 -0.98,-0.38 -0.02,-0.25 0.18,-0.38 0.52,-0.5 h -0.06 l -0.22,-0.52 c -0.53,-0.11 -0.92,-0.39 -0.88,-0.66 0.04,-0.27 0.55,-0.43 1.13,-0.34 h 0.08 c 0.06,-0.23 0.16,-0.45 0.29,-0.66 l -0.08,-1.67 4.9,-0.79 v 0 c 0.73,-0.28 1.49,-0.55 2.23,-0.78 2.73,-1.61 5.23,-1.67 6.57,-0.58 0.74,-0.91 0.39,-1.75 0.91,-1.76 0.52,-0.01 1.58,2.03 1.4,3.19 -0.07,0.4 -0.19,0.78 -0.35,1.15 1.95,4.64 -2.73,13.16 3.13,13.83 3.08,0.35 3.48,-3.49 4.37,-7.17 0.14,-5.18 3.33,-10.79 7.36,-10.15 2.72,1.33 2.74,6.12 7.64,6.37 3.13,0.17 1.97,-6.14 5.58,-5.42 3.18,1.04 6.67,5.5 7.84,9.71 0.42,0.61 0.8,1.25 1.13,1.91 2.89,3.22 6.93,5.19 11.26,5.47 0.47,-1.23 5.26,-0.18 8.15,-2.46 z"
         id="path92"
         style="fill:url(#linearGradient400)" />
      <path
         class="cls-3_the-great-pyramid-40"
         d="m 159.82,352 c -0.05,-0.11 -0.09,-0.23 -0.14,-0.34 -4.69,2.43 -8.52,-0.95 -11.11,-5.39 0.17,0.73 0.38,1.39 0.38,1.39 -0.92,-1.07 -1.5,-2.38 -1.67,-3.79 -0.12,-0.24 -0.23,-0.49 -0.33,-0.73 0.06,0.63 0.16,1.25 0.29,1.87 -0.85,-1.25 -1.29,-2.73 -1.25,-4.24 -0.14,0.73 -0.22,1.46 -0.25,2.2 -0.46,-1.26 -0.55,-2.62 -0.25,-3.93 v 0 c -0.36,0.8 -0.64,1.64 -0.83,2.5 -0.23,-1.33 -0.06,-2.7 0.48,-3.94 -0.19,-0.79 -0.3,-1.6 -0.33,-2.42 0.5,-0.19 1.18,-0.39 1.23,-0.2 0.74,2.71 1.77,5.33 3.09,7.8 1.34,2.5 3.48,4.47 6.08,5.6 1.19,0.32 2.34,0.79 3.4,1.41 0.72,0.51 1.17,1.32 1.22,2.2 z"
         id="path94"
         style="fill:url(#linear-gradient-11-the-great-pyramid-40)" />
      <path
         class="cls-4_the-great-pyramid-40"
         d="m 171.69,370.72 c 0.27,0.64 0.58,1.32 0.93,2.04 -0.13,-0.02 -0.26,-0.07 -0.38,-0.13 -0.41,-0.27 -0.74,-0.64 -0.98,-1.07 -0.23,-0.34 -0.45,-0.68 -0.68,-1.03 v -0.08 l -0.08,-0.2 c -0.09,-0.25 -0.18,-0.49 -0.29,-0.73 0,-0.04 -0.04,-0.08 -0.06,-0.13 l -0.28,-0.59 c 0,-0.08 -0.07,-0.15 -0.11,-0.23 -0.04,-0.08 -0.18,-0.38 -0.28,-0.55 l -0.12,-0.21 -0.28,-0.5 -0.15,-0.28 c -0.06,-0.09 -0.12,-0.18 -0.17,-0.28 l -0.16,-0.26 v 0 c -0.12,-0.04 -0.23,-0.09 -0.34,-0.16 l -0.12,-0.07 -0.23,-0.16 -0.11,-0.09 c -0.1,-0.08 -0.2,-0.17 -0.28,-0.27 l -0.05,-0.06 c -0.08,-0.1 -0.16,-0.2 -0.23,-0.31 l -0.08,-0.13 c -0.06,-0.09 -0.11,-0.18 -0.15,-0.28 l -0.07,-0.13 c -0.06,-0.14 -0.11,-0.29 -0.15,-0.43 -0.05,-0.18 -0.08,-0.36 -0.08,-0.54 v -0.11 c 0,-0.14 0,-0.28 0,-0.42 v -0.08 c 0.02,-0.14 0.06,-0.27 0.1,-0.41 v 0 c 0.05,-0.14 0.12,-0.27 0.2,-0.39 v -0.13 c 0,-0.28 0,-0.53 -0.05,-0.79 v -0.18 c -0.03,-0.3 -0.08,-0.6 -0.14,-0.9 v 0 c -0.06,-0.27 -0.13,-0.53 -0.21,-0.78 0,-0.06 -0.04,-0.12 -0.06,-0.18 -0.08,-0.24 -0.17,-0.47 -0.27,-0.69 l -0.05,-0.12 c -0.27,-0.58 -0.59,-1.13 -0.94,-1.67 l -0.08,-0.13 -0.38,-0.57 c 0.1,-1.26 0.46,-2.49 1.06,-3.61 0.2,-0.51 0.56,-0.95 1.03,-1.24 0.4,-0.16 0.84,-0.21 1.28,-0.15 l 9.55,0.52 c 0.23,0 0.45,0.05 0.63,0.18 0.18,0.2 0.27,0.47 0.26,0.74 0,0.48 0.06,0.98 0.06,1.49 -3.26,1.28 -6.94,1.89 -10.52,0.56 -0.58,2.49 -0.14,5.11 1.2,7.28 0.72,0.42 1.24,1.11 1.44,1.92 0.21,0.66 0.11,1.38 -0.25,1.98 0.05,1.38 0.33,2.75 0.83,4.04 v 0 c 0.09,0.24 0.19,0.49 0.29,0.74 l -0.02,-0.07 z"
         id="path96"
         style="fill:url(#linear-gradient-12-the-great-pyramid-40)" />
      <path
         class="cls-5_the-great-pyramid-40"
         d="m 192.83,366.66 c -2.1,-1.88 -4.09,-3.89 -5.95,-6.02 -0.26,-0.28 -0.64,-0.66 -1.05,-1.08 -0.65,-0.61 -1.21,-1.31 -1.67,-2.08 v 0 c -0.07,-0.15 -0.12,-0.3 -0.15,-0.46 -0.2,-1.21 0.76,-3.27 0.83,-4.6 -0.06,-0.77 0.06,-1.54 0.36,-2.25 0.42,-0.78 1.27,-1.21 1.93,-1.78 1.07,-0.95 1.67,-2.32 1.67,-3.75 0,-0.92 -0.13,-2.1 0.7,-2.5 l 0.06,0.1 v 0 c 0.08,0.38 0.15,0.76 0.19,1.14 0.08,1.43 -0.11,2.86 -0.57,4.22 0.3,3.18 -2.44,5.23 0.83,11.41 0.99,0.46 1.76,1.28 2.14,2.3 0.22,0.53 0.28,1.11 0.16,1.67 0.05,1.25 0.22,2.48 0.51,3.69 z"
         id="path98"
         style="fill:url(#linear-gradient-13-the-great-pyramid-40)" />
      <path
         class="cls-25_the-great-pyramid-40 targetColor"
         d="m 167.23,328.75 c 0.44,4.65 -1.83,9.22 -1.52,13.88 -0.05,0.94 0.36,1.85 1.1,2.43 0.94,0.55 2.11,0 3.17,-0.2 2.65,-0.59 5.39,0.65 8.09,0.39 0.65,0 1.26,-0.28 1.67,-0.79 0.22,-0.45 0.29,-0.96 0.21,-1.45 -0.34,-4.8 -0.9,-9.58 -1.67,-14.32 -1.42,0 -2.38,1.67 -3.8,1.73 -0.47,0 -0.93,-0.12 -1.35,-0.32 -1.41,-0.57 -2.75,-1.27 -4.02,-2.1 -0.63,-0.41 -1.39,-0.93 -2.16,-0.68 0.12,0.47 0.22,0.94 0.28,1.43 z"
         style="fill:#594c21"
         id="path100" />
      <path
         class="cls-11_the-great-pyramid-40"
         d="m 167.23,328.75 c 0.44,4.65 -1.83,9.22 -1.52,13.88 -0.05,0.94 0.36,1.85 1.1,2.43 0.94,0.55 2.11,0 3.17,-0.2 2.65,-0.59 5.39,0.65 8.09,0.39 0.65,0 1.26,-0.28 1.67,-0.79 0.22,-0.45 0.29,-0.96 0.21,-1.45 -0.34,-4.8 -0.9,-9.58 -1.67,-14.32 -1.42,0 -2.38,1.67 -3.8,1.73 -0.47,0 -0.93,-0.12 -1.35,-0.32 -1.41,-0.57 -2.75,-1.27 -4.02,-2.1 -0.63,-0.41 -1.39,-0.93 -2.16,-0.68 0.12,0.47 0.22,0.94 0.28,1.43 z"
         id="path102"
         style="fill:url(#linear-gradient-14-the-great-pyramid-40)" />
      <path
         class="cls-8_the-great-pyramid-40"
         d="m 168.76,329.26 c 0.33,4.09 -1.36,8.09 -1.13,12.18 -0.04,0.8 0.26,1.57 0.83,2.13 0.7,0.48 1.56,0 2.34,-0.18 1.96,-0.52 3.99,0.58 5.99,0.35 0.5,0 0.97,-0.27 1.23,-0.69 0.16,-0.41 0.21,-0.85 0.15,-1.28 -0.25,-4.17 -0.66,-8.4 -1.23,-12.56 -1.05,0 -1.77,1.47 -2.81,1.52 -0.35,0 -0.7,-0.1 -1.01,-0.28 -1.05,-0.51 -2.05,-1.13 -2.98,-1.84 -0.46,-0.36 -1.03,-0.83 -1.59,-0.59 0.09,0.41 0.15,0.83 0.19,1.25 z"
         id="path104"
         style="fill:url(#linear-gradient-15-the-great-pyramid-40)" />
      <ellipse
         class="cls-6_the-great-pyramid-40"
         cx="249.92999"
         cy="383.73001"
         rx="35.029999"
         ry="4.7600002"
         id="ellipse106"
         style="fill:url(#linear-gradient-16-the-great-pyramid-40)" />
      <path
         class="cls-25_the-great-pyramid-40 targetColor"
         d="m 276.47,346.52 c -4.32,-0.29 -8.36,-2.25 -11.26,-5.47 -0.33,-0.66 -0.7,-1.3 -1.13,-1.91 -1.13,-4.21 -4.64,-8.67 -7.83,-9.71 -3.62,-0.72 -2.46,5.59 -5.58,5.42 -4.9,-0.25 -4.92,-5 -7.64,-6.37 -3.99,-0.64 -7.23,5 -7.36,10.15 -0.89,3.68 -1.29,7.5 -4.38,7.17 -5.84,-0.68 -1.18,-9.17 -3.13,-13.82 0.17,-0.37 0.29,-0.76 0.36,-1.16 0.18,-1.16 -0.91,-3.19 -1.41,-3.19 -0.5,0 -0.16,0.83 -0.91,1.76 -1.34,-1.07 -3.83,-1.03 -6.56,0.58 -0.73,0.23 -1.5,0.51 -2.23,0.78 v 0 l -4.9,0.79 0.08,1.67 c -0.13,0.2 -0.24,0.42 -0.3,0.66 h -0.08 c -0.58,-0.09 -1.08,0.07 -1.13,0.34 -0.05,0.27 0.35,0.55 0.88,0.66 l 0.21,0.52 h 0.06 c -0.33,0.13 -0.54,0.32 -0.52,0.5 0.02,0.18 0.46,0.39 0.98,0.38 0.05,0.08 0.08,0.16 0.13,0.23 0.88,1.46 3.78,0.94 5,-0.92 0.31,-0.01 0.63,0.01 0.93,0.08 0.62,1.01 1.71,1.64 2.9,1.67 0.02,0.84 0.13,1.68 0.33,2.5 -0.53,1.24 -0.7,2.61 -0.48,3.94 0.19,-0.86 0.47,-1.7 0.83,-2.5 v 0 c -0.3,1.3 -0.22,2.67 0.24,3.93 0.03,-0.74 0.12,-1.47 0.25,-2.2 -0.04,1.51 0.4,3 1.26,4.24 -0.13,-0.62 -0.23,-1.24 -0.29,-1.87 0.1,0.24 0.22,0.49 0.33,0.73 0.16,1.4 0.74,2.72 1.67,3.79 0,0 -0.22,-0.66 -0.38,-1.39 2.59,4.44 6.42,7.81 11.11,5.39 2.06,5 2.96,6.72 1.86,10.56 -0.52,0.56 -0.84,1.29 -0.88,2.06 -0.14,0.89 0.31,1.78 1.11,2.2 0.6,2.29 1.3,6.46 -0.64,9.17 v 0 c -0.46,0.49 -0.58,1.2 -0.32,1.81 -0.24,0.83 -0.58,1.63 -1,2.38 -3.13,1.78 -6.6,4.11 1.4,3.2 3.82,-0.43 2.83,-2.1 1.67,-3.2 -0.26,-0.43 -0.24,-0.83 0.25,-1.47 0.12,-0.05 0.23,-0.11 0.34,-0.18 0.49,-0.31 0.78,-0.86 0.77,-1.44 v 0 l -0.05,-0.31 v 0 c -0.77,-4.63 -1.31,-7.1 -0.36,-10.6 0.53,-0.57 0.84,-1.3 0.89,-2.07 0.09,-0.76 -0.2,-1.52 -0.79,-2.02 -0.46,-2.03 -0.3,-4.15 0.45,-6.09 l 0.14,0.21 v 0.04 c 0.22,0.3 0.41,0.58 0.59,0.83 0.03,0.04 0.06,0.09 0.08,0.13 0.36,0.53 0.68,1.09 0.95,1.67 l 0.04,0.12 c 0.1,0.23 0.19,0.46 0.28,0.69 l 0.05,0.18 c 0.09,0.26 0.16,0.52 0.21,0.78 v 0 c 0.06,0.29 0.1,0.59 0.13,0.9 0,0.06 0,0.12 0,0.18 0,0.26 0.04,0.52 0.05,0.79 v 0.13 c -0.08,0.12 -0.15,0.26 -0.2,0.39 v 0 c -0.05,0.13 -0.09,0.27 -0.11,0.41 v 0.08 c -0.01,0.14 -0.01,0.28 0,0.42 v 0.19 c 0.01,0.18 0.05,0.36 0.09,0.54 0.04,0.15 0.09,0.29 0.15,0.43 l 0.06,0.13 0.15,0.28 c 0,0 0.05,0.09 0.08,0.13 0.07,0.11 0.15,0.21 0.23,0.31 l 0.05,0.06 c 0.08,0.1 0.18,0.19 0.28,0.27 l 0.11,0.09 0.23,0.16 0.12,0.07 c 0.11,0.06 0.23,0.12 0.35,0.16 v 0 c 0.05,0.08 0.11,0.17 0.16,0.26 l 0.17,0.28 c 0.05,0.09 0.1,0.18 0.16,0.28 l 0.28,0.5 c 0,0.07 0.08,0.13 0.11,0.21 0.03,0.08 0.19,0.36 0.28,0.55 0.09,0.19 0.07,0.15 0.11,0.23 l 0.28,0.59 c 0,0 0.03,0.09 0.06,0.13 0.1,0.24 0.2,0.49 0.29,0.73 0.03,0.07 0.05,0.13 0.07,0.2 0.08,0.21 0.15,0.42 0.21,0.63 0.02,0.05 0.04,0.11 0.05,0.17 0.08,0.26 0.14,0.51 0.19,0.76 0,0.06 0,0.12 0,0.18 0.04,0.2 0.07,0.41 0.09,0.62 v 0.19 c 0.02,0.24 0.02,0.48 0,0.73 v 0.12 c 0,0.2 -0.03,0.4 -0.07,0.6 v 0.18 c -0.05,0.23 -0.11,0.45 -0.2,0.66 v 0 c -0.07,0.11 -0.12,0.23 -0.15,0.35 v 0 c -0.04,0.28 0,0.57 0.11,0.83 v 0 c 0.06,0.14 0.14,0.27 0.23,0.39 0,0.07 0,0.14 0,0.22 0,0.07 0,0.14 0,0.21 v 0.6 c 0,0.07 -0.04,0.34 -0.08,0.52 -0.04,0.18 0,0.21 -0.06,0.32 -0.06,0.11 -0.04,0.22 -0.06,0.33 v 0 l -0.19,0.12 -0.08,0.05 -0.2,0.13 -0.07,0.04 -0.22,0.13 h -0.04 c -0.23,0.14 -0.45,0.29 -0.66,0.44 l -0.09,0.06 -0.16,0.12 -0.1,0.08 -0.14,0.11 -0.11,0.08 -0.13,0.1 -0.1,0.08 -0.12,0.09 c 0,0 -0.07,0.07 -0.11,0.11 l -0.11,0.1 -0.13,0.14 -0.06,0.07 -0.09,0.1 -0.04,0.07 -0.07,0.1 v 0.07 c 0,0 -0.04,0.06 -0.05,0.09 0,0.02 0,0.04 0,0.06 0,0.03 0,0.07 0,0.1 v 0 c 0,0.09 0.03,0.18 0.08,0.26 v 0 l 0.08,0.08 h 0.04 l 0.13,0.08 h 0.06 l 0.16,0.06 h 0.07 c 0.08,0.03 0.15,0.04 0.23,0.05 h 0.06 c 0.22,0 0.47,0.06 0.78,0.08 h 1.88 l 0.53,-0.04 h 0.19 l 0.83,-0.08 0.58,-0.08 v 0 c 3.06,-0.53 1.67,-2.02 0.3,-3.01 -0.32,-0.38 -0.35,-0.92 -0.08,-1.33 0.17,-0.05 0.33,-0.13 0.48,-0.23 0.56,-0.5 0.6,-1.35 0.11,-1.91 -0.02,-0.02 -0.04,-0.05 -0.07,-0.07 -1.02,-1.98 -1.83,-3.55 -2.43,-5 v 0 c -0.1,-0.25 -0.2,-0.5 -0.28,-0.74 v 0 c -0.49,-1.29 -0.77,-2.66 -0.83,-4.04 0.37,-0.59 0.46,-1.31 0.26,-1.98 -0.21,-0.81 -0.73,-1.5 -1.44,-1.92 -1.34,-2.17 -1.78,-4.79 -1.21,-7.28 3.65,1.36 7.43,0.69 10.74,-0.64 v 2.09 c 0,0.28 0,0.56 0.06,0.83 v 0.29 c 0,0.28 0.06,0.56 0.1,0.83 0,0.08 0,0.16 0,0.24 0.04,0.28 0.08,0.55 0.13,0.83 v 0.2 c 0.05,0.28 0.12,0.54 0.18,0.83 0.02,0.05 0.03,0.11 0.04,0.17 0.08,0.27 0.15,0.53 0.23,0.78 l 0.05,0.13 c 0.08,0.27 0.18,0.52 0.28,0.76 0,0.04 0.02,0.07 0.04,0.11 0.1,0.25 0.21,0.5 0.33,0.73 l 0.04,0.08 c 0.11,0.24 0.24,0.47 0.38,0.7 v 0.06 c 0.14,0.23 0.28,0.46 0.44,0.68 v 0 c 0.17,0.23 0.33,0.44 0.51,0.65 v 0 l 0.18,0.19 v 0 c 0.04,0.15 0.09,0.3 0.13,0.48 v 0.05 c 0,0.17 0.09,0.35 0.13,0.53 0.02,0.06 0.03,0.13 0.04,0.19 0.04,0.17 0.08,0.34 0.12,0.52 0.04,0.18 0,0.11 0,0.17 l 0.13,0.67 v 0.27 c 0,0.08 0.05,0.33 0.07,0.49 0.02,0.16 0,0.19 0,0.29 0,0.24 0.04,0.48 0.06,0.72 v 1.89 c 0,0.24 -0.03,0.48 -0.1,0.7 0,0.11 -0.04,0.21 -0.07,0.31 -0.03,0.1 -0.08,0.3 -0.12,0.44 -0.04,0.14 -0.06,0.21 -0.09,0.31 -0.03,0.1 -0.15,0.4 -0.24,0.59 -0.09,0.19 -0.09,0.18 -0.13,0.26 -0.04,0.08 -0.13,0.23 -0.21,0.35 -0.13,0.1 -0.25,0.22 -0.34,0.35 v 0 c -0.03,0.05 -0.06,0.11 -0.08,0.17 -0.02,0.03 -0.03,0.07 -0.04,0.1 0,0.05 0,0.1 0,0.15 0,0.04 0,0.09 0,0.13 0,0.05 0,0.09 0,0.14 0,0.06 0,0.11 0,0.17 0,0.04 0,0.08 0,0.13 0,0.07 0.02,0.13 0.05,0.19 v 0.11 c 0,0.08 0.07,0.17 0.11,0.25 v 0 0.13 l -0.05,0.25 c -0.03,0.12 -0.06,0.25 -0.1,0.37 l -0.05,0.19 c -0.07,0.18 -0.13,0.38 -0.21,0.57 l -0.08,0.18 -0.1,0.25 c -0.62,0.31 -1.27,0.65 -1.84,0.99 h -0.06 l -0.25,0.14 -0.08,0.05 -0.22,0.13 -0.08,0.05 -0.21,0.13 -0.06,0.05 c -0.08,0.05 -0.16,0.11 -0.23,0.17 v 0 l -0.23,0.18 v 0 l -0.14,0.13 -0.05,0.05 -0.11,0.11 c 0,0 -0.02,0.04 -0.04,0.06 -0.03,0.03 -0.05,0.06 -0.07,0.1 0,0.02 0,0.03 0,0.05 l -0.05,0.1 v 0 c 0,0 0,0.09 0,0.13 v 0 c 0,0 0,0.08 0,0.13 v 0 c 0,0 0.03,0.06 0.06,0.09 v 0 l 0.1,0.07 h 0.06 l 0.13,0.06 h 0.08 l 0.19,0.06 h 0.08 c 0.24,0.05 0.49,0.08 0.73,0.1 h 2.92 l 0.83,-0.05 c 0.26,0 0.48,-0.05 0.69,-0.08 h 0.14 c 0.36,-0.05 0.71,-0.14 1.04,-0.27 v 0 c 1.45,-0.6 0.71,-1.73 -0.19,-2.58 -0.23,-0.38 -0.21,-0.77 0.18,-1.31 0.11,-0.04 0.22,-0.09 0.33,-0.16 0.6,-0.39 0.83,-1.15 0.55,-1.8 -0.37,-1.65 -0.61,-3.32 -0.71,-5 v 0 -0.31 c -0.02,-1.8 0.26,-3.59 0.83,-5.29 0.3,-0.48 0.46,-1.05 0.44,-1.62 0.02,-0.9 -0.47,-1.74 -1.27,-2.18 -0.25,-1.35 -0.23,-2.73 0.05,-4.07 1.24,2.4 2.94,4.54 5,6.29 0.08,0.08 0.17,0.15 0.26,0.21 v 0 c 1.5,2.33 4.3,7.21 3.4,10.11 -0.27,0.53 -0.16,1.18 0.27,1.59 0.12,0.56 0.18,1.13 0.17,1.71 -2.66,1.79 -6.54,4.61 1.94,3.79 3.78,-0.37 2.09,-2.15 0.52,-3.33 -0.19,-0.4 -0.19,-0.87 0,-1.27 0.15,-0.04 0.29,-0.12 0.41,-0.22 0.5,-0.48 0.52,-1.28 0.04,-1.78 -0.03,-0.03 -0.07,-0.07 -0.1,-0.1 -2.65,-4.74 -3.62,-7.29 -3.85,-11 0.11,-0.56 0.06,-1.14 -0.17,-1.67 -0.38,-1.02 -1.15,-1.84 -2.13,-2.3 -3.24,-6.18 -0.5,-8.22 -0.83,-11.41 0.46,-1.36 0.65,-2.79 0.57,-4.22 -0.15,-1.21 -0.46,-2.39 -0.93,-3.52 2.87,2.86 6.68,4.6 10.73,4.89 0,0.04 0,0.08 0,0.12 1.38,2.82 6.18,1.47 8.59,-2.55 -2.91,2.65 -7.7,1.61 -8.53,2.43 z"
         style="fill:#594c21"
         id="path108" />
      <path
         class="cls-14_the-great-pyramid-40"
         d="m 284.97,344.47 c -2.4,4.02 -7.21,5.37 -8.59,2.55 v -0.12 c -4.05,-0.29 -7.86,-2.03 -10.74,-4.89 0.32,0.77 0.57,1.56 0.74,2.37 v 0 c 0.08,0.38 0.15,0.76 0.19,1.14 0.08,1.43 -0.11,2.86 -0.57,4.22 0.3,3.18 -2.44,5.23 0.83,11.41 0.99,0.46 1.76,1.28 2.14,2.3 0.22,0.53 0.28,1.11 0.16,1.67 0.07,1.23 0.26,2.45 0.57,3.64 0.78,2.58 1.89,5.05 3.29,7.35 0.53,0.46 0.6,1.26 0.14,1.8 -0.02,0.03 -0.05,0.05 -0.07,0.08 -0.12,0.1 -0.26,0.17 -0.41,0.22 -0.19,0.4 -0.19,0.87 0,1.27 1.58,1.17 3.27,2.95 -0.51,3.33 -8.5,0.83 -4.61,-1.99 -1.94,-3.79 0,-0.57 -0.05,-1.15 -0.17,-1.71 -0.43,-0.41 -0.54,-1.06 -0.27,-1.59 0.89,-2.9 -1.9,-7.79 -3.41,-10.11 v 0 c -0.09,-0.06 -0.18,-0.13 -0.27,-0.21 -1.29,-1.08 -2.43,-2.32 -3.38,-3.7 -0.59,-0.83 -1.12,-1.7 -1.6,-2.59 0,0.16 -0.07,0.33 -0.09,0.5 v 0 c -0.19,1.18 -0.17,2.38 0.04,3.56 0.8,0.43 1.28,1.27 1.27,2.18 0.02,0.57 -0.14,1.14 -0.45,1.62 -0.57,1.71 -0.85,3.5 -0.83,5.29 v 0.15 c 0,0.05 0,0.11 0,0.16 v 0 c 0.1,1.68 0.33,3.36 0.7,5 0.28,0.65 0.05,1.41 -0.54,1.8 -0.11,0.06 -0.22,0.12 -0.33,0.16 -0.35,0.35 -0.42,0.89 -0.17,1.31 0.89,0.83 1.67,1.98 0.18,2.58 v 0 c -0.33,0.13 -0.68,0.22 -1.03,0.27 h -0.14 c -0.22,0 -0.44,0.06 -0.69,0.08 l -0.83,0.05 h -2.63 c -0.25,-0.02 -0.5,-0.05 -0.74,-0.1 h -0.08 c -0.06,0 -0.13,-0.02 -0.18,-0.05 h -0.08 l -0.13,-0.06 h -0.06 l -0.09,-0.07 v 0 c 0,0 -0.05,-0.06 -0.07,-0.09 v 0 c 0,0 0,-0.08 0,-0.13 v 0 c 0,0 0,-0.08 0,-0.13 v 0 c 0,0 0.02,-0.07 0.04,-0.1 v -0.05 l 0.08,-0.1 0.04,-0.06 0.1,-0.11 0.05,-0.05 0.15,-0.13 v 0 l 0.22,-0.18 v 0 c 0.07,-0.06 0.15,-0.12 0.23,-0.17 l 0.07,-0.05 0.2,-0.13 0.08,-0.05 0.21,-0.13 0.08,-0.05 0.24,-0.14 h 0.06 c 0.58,-0.34 1.23,-0.68 1.84,-0.99 l 0.1,-0.25 c 0.03,-0.06 0.06,-0.12 0.08,-0.18 0.08,-0.19 0.15,-0.38 0.21,-0.58 0,-0.06 0,-0.12 0.06,-0.18 0.06,-0.06 0.07,-0.25 0.09,-0.37 0.02,-0.08 0.04,-0.17 0.05,-0.25 v -0.13 0 c -0.04,-0.08 -0.08,-0.16 -0.11,-0.25 0,-0.04 0,-0.07 0,-0.11 -0.02,-0.06 -0.03,-0.13 -0.04,-0.19 v -0.5 c 0,0 0,-0.09 0,-0.14 v -0.13 c 0,-0.05 0,-0.1 0.04,-0.15 l 0.05,-0.1 c 0.02,-0.06 0.05,-0.11 0.08,-0.17 v 0 c 0.09,-0.14 0.21,-0.26 0.34,-0.35 0.07,-0.12 0.14,-0.23 0.2,-0.35 0.05,-0.08 0.1,-0.17 0.14,-0.26 0.09,-0.19 0.17,-0.39 0.23,-0.59 0.04,-0.1 0.07,-0.2 0.1,-0.31 0.03,-0.11 0.08,-0.29 0.12,-0.44 0.04,-0.15 0.04,-0.2 0.07,-0.31 0.03,-0.11 0.08,-0.46 0.1,-0.7 v -1.89 c 0,-0.24 0,-0.48 -0.06,-0.72 v -0.29 c 0,-0.09 -0.04,-0.33 -0.07,-0.49 -0.03,-0.16 0,-0.18 -0.04,-0.27 0,-0.23 -0.08,-0.45 -0.12,-0.67 0,-0.06 0,-0.11 0,-0.17 -0.04,-0.18 -0.08,-0.35 -0.12,-0.52 -0.04,-0.17 0,-0.13 -0.04,-0.19 -0.04,-0.06 -0.09,-0.37 -0.14,-0.53 v -0.05 l -0.13,-0.48 v 0 c -0.06,-0.06 -0.12,-0.12 -0.18,-0.19 v 0 c -0.18,-0.21 -0.35,-0.42 -0.51,-0.65 v 0 c -0.16,-0.22 -0.31,-0.45 -0.45,-0.68 0,-0.02 0,-0.04 0,-0.06 -0.13,-0.23 -0.26,-0.46 -0.38,-0.7 0,-0.03 -0.02,-0.06 -0.04,-0.08 -0.11,-0.23 -0.23,-0.48 -0.33,-0.73 0,0 0,-0.07 -0.04,-0.11 -0.1,-0.24 -0.19,-0.5 -0.28,-0.76 0,-0.04 0,-0.08 -0.04,-0.13 -0.08,-0.25 -0.16,-0.52 -0.23,-0.78 -0.02,-0.05 -0.03,-0.11 -0.04,-0.17 -0.07,-0.26 -0.13,-0.53 -0.18,-0.83 v -0.2 c -0.05,-0.28 -0.1,-0.54 -0.14,-0.83 v -0.24 c 0,-0.28 -0.07,-0.55 -0.09,-0.83 v -0.29 c 0,-0.28 -0.05,-0.55 -0.07,-0.83 v -2.09 l -0.21,0.08 c -3.26,1.28 -6.94,1.89 -10.52,0.56 -0.58,2.49 -0.14,5.11 1.2,7.28 0.72,0.42 1.24,1.11 1.44,1.92 0.21,0.66 0.11,1.38 -0.25,1.98 0.05,1.38 0.33,2.75 0.83,4.04 v 0 c 0.09,0.24 0.19,0.49 0.29,0.74 v 0 c 0.27,0.64 0.58,1.32 0.93,2.04 0.43,0.88 0.93,1.86 1.49,2.95 0.54,0.46 0.6,1.26 0.15,1.8 -0.17,0.2 -0.4,0.35 -0.66,0.41 -0.28,0.41 -0.25,0.96 0.08,1.33 1.38,0.99 2.76,2.5 -0.29,3.01 v 0 c -0.18,0 -0.37,0.06 -0.58,0.08 -0.21,0.02 -0.54,0.07 -0.83,0.08 h -0.2 l -0.53,0.04 h -1.88 c -0.3,0 -0.56,-0.03 -0.78,-0.08 h -0.06 c -0.08,-0.01 -0.15,-0.03 -0.23,-0.05 h -0.07 l -0.17,-0.06 h -0.06 l -0.12,-0.08 h -0.04 l -0.09,-0.08 v 0 c -0.06,-0.07 -0.08,-0.17 -0.08,-0.26 v 0 c 0,0 0,-0.07 0,-0.1 v -0.06 c 0,0 0.02,-0.06 0.04,-0.09 v -0.07 l 0.07,-0.1 0.05,-0.07 0.09,-0.1 0.05,-0.07 0.14,-0.14 0.1,-0.1 0.12,-0.11 0.11,-0.09 0.11,-0.08 0.13,-0.1 0.1,-0.08 0.14,-0.11 0.11,-0.08 0.16,-0.12 0.08,-0.06 c 0.22,-0.15 0.43,-0.3 0.66,-0.44 h 0.05 l 0.21,-0.13 0.07,-0.04 0.21,-0.13 0.08,-0.05 0.19,-0.12 v 0 c 0,-0.11 0.04,-0.22 0.07,-0.33 0.03,-0.11 0.04,-0.21 0.06,-0.32 l 0.08,-0.52 v -0.81 c 0,-0.07 0,-0.14 0,-0.22 -0.09,-0.12 -0.16,-0.25 -0.23,-0.39 v 0 c -0.12,-0.26 -0.16,-0.55 -0.11,-0.83 v 0 c 0.03,-0.13 0.08,-0.25 0.14,-0.36 v 0 c 0.09,-0.21 0.16,-0.43 0.21,-0.66 v -0.18 c 0.03,-0.2 0.06,-0.4 0.07,-0.6 0,-0.04 0,-0.08 0,-0.12 0.02,-0.24 0.02,-0.48 0,-0.73 0,-0.06 0,-0.13 0,-0.19 0,-0.21 -0.06,-0.42 -0.09,-0.62 0,-0.06 0,-0.12 0,-0.18 -0.06,-0.25 -0.12,-0.5 -0.19,-0.76 l -0.05,-0.17 c -0.06,-0.18 -0.12,-0.36 -0.18,-0.54 v -0.08 l -0.08,-0.2 c -0.09,-0.25 -0.18,-0.49 -0.29,-0.73 0,-0.04 -0.04,-0.08 -0.06,-0.13 l -0.28,-0.59 c 0,-0.08 -0.07,-0.15 -0.11,-0.23 -0.04,-0.08 -0.18,-0.38 -0.28,-0.55 l -0.12,-0.21 -0.28,-0.5 -0.15,-0.28 c -0.06,-0.09 -0.12,-0.18 -0.17,-0.28 l -0.16,-0.26 v 0 c -0.12,-0.04 -0.23,-0.09 -0.34,-0.16 l -0.12,-0.07 -0.23,-0.16 -0.11,-0.09 c -0.1,-0.08 -0.2,-0.17 -0.28,-0.27 l -0.05,-0.06 c -0.08,-0.1 -0.16,-0.2 -0.23,-0.31 l -0.08,-0.13 c -0.06,-0.09 -0.11,-0.18 -0.15,-0.28 0,-0.04 0,-0.09 -0.07,-0.13 -0.06,-0.14 -0.11,-0.29 -0.15,-0.43 -0.05,-0.18 -0.08,-0.36 -0.08,-0.54 v -0.11 c 0,-0.14 0,-0.28 0,-0.42 v -0.08 c 0.02,-0.14 0.06,-0.27 0.1,-0.41 v 0 c 0.05,-0.14 0.12,-0.27 0.2,-0.39 v -0.13 c 0,-0.28 0,-0.53 -0.05,-0.79 v -0.18 c -0.03,-0.3 -0.08,-0.6 -0.14,-0.9 v 0 c -0.06,-0.27 -0.13,-0.53 -0.21,-0.78 0,-0.06 -0.04,-0.12 -0.06,-0.18 -0.08,-0.24 -0.17,-0.47 -0.27,-0.69 l -0.05,-0.12 c -0.27,-0.58 -0.59,-1.13 -0.94,-1.67 l -0.08,-0.13 -0.38,-0.57 -0.22,-0.3 v -0.04 l -0.15,-0.21 c -0.75,1.94 -0.9,4.06 -0.44,6.09 0.58,0.5 0.88,1.26 0.79,2.02 -0.05,0.77 -0.37,1.5 -0.89,2.07 -0.96,3.5 -0.42,5.97 0.36,10.6 v 0 c 0,0.11 0.04,0.2 0.06,0.31 v 0 c 0,0.58 -0.29,1.12 -0.78,1.44 -0.11,0.07 -0.22,0.13 -0.34,0.18 -0.48,0.63 -0.51,1.04 -0.25,1.47 1.15,1.1 2.14,2.77 -1.67,3.2 -8,0.91 -4.53,-1.43 -1.39,-3.2 0.43,-0.75 0.76,-1.55 1,-2.38 -0.27,-0.61 -0.15,-1.32 0.31,-1.81 v 0 c 1.94,-2.73 1.24,-6.9 0.63,-9.17 -0.8,-0.42 -1.25,-1.31 -1.11,-2.2 0.05,-0.77 0.37,-1.49 0.88,-2.06 1.08,-3.75 0.25,-5.46 -1.72,-10.22 -0.05,-0.11 -0.09,-0.23 -0.14,-0.34 -4.69,2.43 -8.52,-0.95 -11.11,-5.39 0.17,0.73 0.38,1.39 0.38,1.39 -0.92,-1.07 -1.5,-2.38 -1.67,-3.79 -0.12,-0.24 -0.23,-0.49 -0.33,-0.73 0.06,0.63 0.16,1.25 0.29,1.87 -0.85,-1.25 -1.29,-2.73 -1.25,-4.24 -0.13,0.73 -0.22,1.46 -0.25,2.2 -0.46,-1.26 -0.55,-2.62 -0.25,-3.93 v 0 c -0.36,0.8 -0.64,1.64 -0.83,2.5 -0.23,-1.33 -0.06,-2.7 0.48,-3.94 -0.19,-0.79 -0.3,-1.6 -0.33,-2.42 v -0.08 c -1.19,-0.03 -2.28,-0.65 -2.9,-1.67 -0.31,-0.06 -0.62,-0.09 -0.93,-0.08 -1.21,1.86 -4.11,2.37 -5,0.92 l -0.13,-0.23 c -0.53,0 -0.96,-0.13 -0.98,-0.38 -0.02,-0.25 0.18,-0.38 0.52,-0.5 h -0.06 l -0.22,-0.52 c -0.53,-0.11 -0.92,-0.39 -0.83,-0.66 0.09,-0.27 0.55,-0.43 1.13,-0.34 h 0.08 c 0.06,-0.23 0.16,-0.45 0.29,-0.66 l -0.08,-1.67 4.9,-0.79 v 0 c 0.73,-0.28 1.49,-0.55 2.23,-0.78 2.73,-1.61 5.23,-1.67 6.57,-0.58 0.74,-0.91 0.39,-1.75 0.91,-1.76 0.52,-0.01 1.58,2.03 1.4,3.19 -0.07,0.4 -0.19,0.78 -0.35,1.15 1.95,4.64 -2.73,13.16 3.13,13.83 3.08,0.35 3.48,-3.49 4.37,-7.17 0.14,-5.18 3.33,-10.79 7.36,-10.15 2.72,1.33 2.74,6.12 7.64,6.37 3.13,0.17 1.97,-6.14 5.58,-5.42 3.18,1.04 6.67,5.5 7.84,9.71 0.42,0.61 0.8,1.25 1.13,1.91 2.89,3.22 6.93,5.19 11.26,5.47 0.53,-1.03 5.32,0 8.2,-2.27 z"
         id="path110"
         style="fill:url(#linear-gradient-17-the-great-pyramid-40)" />
      <path
         class="cls-10_the-great-pyramid-40"
         d="m 236.69,354.14 c -0.05,-0.11 -0.09,-0.23 -0.14,-0.34 -4.69,2.43 -8.52,-0.95 -11.11,-5.39 0.17,0.73 0.38,1.39 0.38,1.39 -0.92,-1.07 -1.5,-2.38 -1.67,-3.79 -0.12,-0.24 -0.23,-0.49 -0.33,-0.73 0.06,0.63 0.16,1.25 0.29,1.87 -0.85,-1.25 -1.29,-2.73 -1.25,-4.24 -0.13,0.73 -0.22,1.46 -0.25,2.2 -0.46,-1.26 -0.55,-2.62 -0.25,-3.93 v 0 c -0.36,0.8 -0.64,1.64 -0.83,2.5 -0.23,-1.33 -0.06,-2.7 0.48,-3.94 -0.19,-0.79 -0.3,-1.6 -0.33,-2.42 0.5,-0.19 1.18,-0.39 1.23,-0.2 0.74,2.71 1.77,5.33 3.09,7.8 1.34,2.5 3.48,4.47 6.08,5.6 1.19,0.32 2.34,0.79 3.4,1.41 0.72,0.51 1.17,1.32 1.22,2.2 z"
         id="path112"
         style="fill:url(#linear-gradient-18-the-great-pyramid-40)" />
      <path
         class="cls-7_the-great-pyramid-40"
         d="m 248.53,372.85 c 0.27,0.64 0.58,1.32 0.93,2.04 -0.13,-0.02 -0.26,-0.07 -0.38,-0.13 -0.41,-0.27 -0.74,-0.64 -0.98,-1.07 -0.23,-0.34 -0.45,-0.68 -0.68,-1.03 v -0.08 l -0.08,-0.2 c -0.09,-0.25 -0.18,-0.49 -0.29,-0.73 0,-0.04 -0.04,-0.08 -0.06,-0.13 l -0.28,-0.59 c 0,-0.08 -0.07,-0.15 -0.11,-0.23 -0.04,-0.08 -0.18,-0.38 -0.28,-0.55 l -0.12,-0.21 -0.28,-0.5 -0.15,-0.28 c -0.06,-0.09 -0.12,-0.18 -0.17,-0.28 l -0.16,-0.26 v 0 c -0.12,-0.04 -0.23,-0.09 -0.34,-0.16 l -0.12,-0.07 -0.23,-0.16 -0.11,-0.09 c -0.1,-0.08 -0.2,-0.17 -0.28,-0.27 l -0.05,-0.06 c -0.08,-0.1 -0.16,-0.2 -0.23,-0.31 L 244,367.37 c -0.06,-0.09 -0.11,-0.18 -0.15,-0.28 0,-0.04 0,-0.09 -0.07,-0.13 -0.06,-0.14 -0.11,-0.29 -0.15,-0.43 -0.05,-0.18 -0.08,-0.36 -0.08,-0.54 v -0.11 c 0,-0.14 0,-0.28 0,-0.42 v -0.08 c 0.02,-0.14 0.06,-0.27 0.1,-0.41 v 0 c 0.05,-0.14 0.12,-0.27 0.2,-0.39 v -0.13 c 0,-0.28 0,-0.53 -0.05,-0.79 v -0.18 c -0.03,-0.3 -0.08,-0.6 -0.14,-0.9 v 0 c -0.06,-0.27 -0.13,-0.53 -0.21,-0.78 0,-0.06 -0.04,-0.12 -0.06,-0.18 -0.08,-0.24 -0.17,-0.47 -0.27,-0.69 l -0.05,-0.12 c -0.27,-0.58 -0.59,-1.13 -0.94,-1.67 l -0.08,-0.13 -0.38,-0.57 c 0.1,-1.26 0.46,-2.49 1.06,-3.61 0.2,-0.51 0.56,-0.95 1.03,-1.24 0.4,-0.16 0.84,-0.21 1.28,-0.15 l 9.55,0.52 c 0.23,0 0.45,0.05 0.63,0.18 0.18,0.2 0.27,0.47 0.26,0.74 0,0.48 0.06,0.98 0.06,1.49 -3.26,1.28 -6.94,1.89 -10.52,0.56 -0.58,2.49 -0.14,5.11 1.2,7.28 0.72,0.42 1.24,1.11 1.44,1.92 0.21,0.66 0.11,1.38 -0.25,1.98 0.05,1.38 0.33,2.75 0.83,4.04 v 0 c 0.09,0.24 0.19,0.49 0.29,0.74 l -0.02,-0.07 z"
         id="path114"
         style="fill:url(#linear-gradient-19-the-great-pyramid-40)" />
      <path
         class="cls-13_the-great-pyramid-40"
         d="m 269.67,368.79 c -2.1,-1.88 -4.09,-3.89 -5.95,-6.02 -0.26,-0.28 -0.64,-0.66 -1.05,-1.08 -0.65,-0.61 -1.21,-1.31 -1.67,-2.08 v 0 c -0.07,-0.15 -0.12,-0.3 -0.15,-0.46 -0.2,-1.21 0.76,-3.27 0.83,-4.6 -0.06,-0.77 0.06,-1.54 0.36,-2.25 0.42,-0.78 1.27,-1.21 1.93,-1.78 1.07,-0.95 1.67,-2.32 1.67,-3.75 0,-0.92 -0.13,-2.1 0.7,-2.5 l 0.06,0.1 v 0 c 0.08,0.38 0.15,0.76 0.19,1.14 0.08,1.43 -0.11,2.86 -0.57,4.22 0.3,3.18 -2.44,5.23 0.83,11.41 0.99,0.46 1.76,1.28 2.14,2.3 0.22,0.53 0.28,1.11 0.16,1.67 0.05,1.25 0.22,2.48 0.51,3.69 z"
         id="path116"
         style="fill:url(#linear-gradient-20-the-great-pyramid-40)" />
      <path
         class="cls-25_the-great-pyramid-40 targetColor"
         d="m 244.08,330.88 c 0.44,4.65 -1.83,9.22 -1.52,13.88 -0.05,0.94 0.36,1.84 1.1,2.43 0.94,0.54 2.11,0 3.17,-0.21 2.64,-0.59 5.39,0.66 8.09,0.4 0.65,0 1.26,-0.29 1.67,-0.79 0.22,-0.45 0.29,-0.96 0.21,-1.46 -0.34,-4.79 -0.9,-9.57 -1.67,-14.32 -1.42,0 -2.38,1.67 -3.8,1.73 -0.47,0 -0.93,-0.11 -1.35,-0.32 -1.41,-0.56 -2.75,-1.26 -4.02,-2.09 -0.63,-0.41 -1.39,-0.93 -2.16,-0.68 0.12,0.47 0.22,0.94 0.28,1.43 z"
         style="fill:#594c21"
         id="path118" />
      <path
         class="cls-9_the-great-pyramid-40"
         d="m 244.08,330.88 c 0.44,4.65 -1.83,9.22 -1.52,13.88 -0.05,0.94 0.36,1.84 1.1,2.43 0.94,0.54 2.11,0 3.17,-0.21 2.64,-0.59 5.39,0.66 8.09,0.4 0.65,0 1.26,-0.29 1.67,-0.79 0.22,-0.45 0.29,-0.96 0.21,-1.46 -0.34,-4.79 -0.9,-9.57 -1.67,-14.32 -1.42,0 -2.38,1.67 -3.8,1.73 -0.47,0 -0.93,-0.11 -1.35,-0.32 -1.41,-0.56 -2.75,-1.26 -4.02,-2.09 -0.63,-0.41 -1.39,-0.93 -2.16,-0.68 0.12,0.47 0.22,0.94 0.28,1.43 z"
         id="path120"
         style="fill:url(#linear-gradient-21-the-great-pyramid-40)" />
      <path
         class="cls-12_the-great-pyramid-40"
         d="m 245.62,331.39 c 0.33,4.08 -1.36,8.09 -1.13,12.17 -0.05,0.8 0.26,1.57 0.83,2.13 0.7,0.48 1.56,0 2.34,-0.18 1.96,-0.52 3.99,0.58 5.99,0.34 0.49,0 0.95,-0.26 1.21,-0.68 0.17,-0.4 0.22,-0.84 0.16,-1.28 -0.25,-4.2 -0.66,-8.39 -1.23,-12.56 -1.05,0 -1.77,1.47 -2.82,1.53 -0.35,0 -0.7,-0.11 -1,-0.28 -1.06,-0.5 -2.05,-1.12 -2.98,-1.83 -0.46,-0.36 -1.03,-0.83 -1.59,-0.59 0.07,0.38 0.18,0.85 0.21,1.23 z"
         id="path122"
         style="fill:url(#linear-gradient-22-the-great-pyramid-40)" />
    </g>
  </g>
</svg>
